<svg width="16" height="16" viewBox="0 0 16 16" fill="none" xmlns="http://www.w3.org/2000/svg">
<g clip-path="url(#clip0_2705_364)">
<path d="M2.66683 4.4C6.24246 3.80764 9.8912 3.80764 13.4668 4.4M6.30241 2.00287C7.64532 1.93106 8.99153 1.94129 10.3335 2.03357M1.68278 14C1.21707 11.8022 1.21707 9.53115 1.68278 7.33333C1.74398 7.11014 1.86221 6.90671 2.02586 6.74307C2.1895 6.57942 2.39292 6.46119 2.61612 6.4C6.19175 5.80764 9.84049 5.80764 13.4161 6.4C13.6393 6.46119 13.8427 6.57942 14.0064 6.74307C14.17 6.90671 14.2883 7.11014 14.3495 7.33333C14.8152 9.53115 14.8152 11.8022 14.3495 14C14.2883 14.2232 14.17 14.4266 14.0064 14.5903C13.8427 14.7539 13.6393 14.8721 13.4161 14.9333C9.8405 15.5258 6.19174 15.5258 2.61612 14.9333C2.39292 14.8721 2.1895 14.7539 2.02586 14.5903C1.86221 14.4266 1.74398 14.2232 1.68278 14ZM6.68278 12.6667L10.0161 10.6667L6.68278 8.66666V12.6667Z" stroke="white" stroke-width="1.5" stroke-linecap="round" stroke-linejoin="round"/>
</g>
<defs>
<clipPath id="clip0_2705_364">
<rect width="16" height="16" fill="white"/>
</clipPath>
</defs>
</svg>
