<svg width="24" height="48" viewBox="0 0 24 48" fill="none" xmlns="http://www.w3.org/2000/svg">
<path d="M10.5832 31.5C10.7227 31.7537 10.9277 31.9653 11.1769 32.1127C11.4261 32.26 11.7103 32.3378 11.9998 32.3378C12.2894 32.3378 12.5736 32.26 12.8228 32.1127C13.072 31.9653 13.277 31.7537 13.4165 31.5M7 20.6667C7 19.3406 7.52678 18.0688 8.46447 17.1311C9.40215 16.1934 10.6739 15.6667 12 15.6667C13.3261 15.6667 14.5979 16.1934 15.5355 17.1311C16.4732 18.0688 17 19.3406 17 20.6667C17 26.5 19.5 28.1667 19.5 28.1667H4.5C4.5 28.1667 7 26.5 7 20.6667Z" stroke="white" stroke-width="2" stroke-linecap="round" stroke-linejoin="round"/>
</svg>
