<svg width="28" height="34" viewBox="0 0 28 34" fill="none" xmlns="http://www.w3.org/2000/svg">
<path fill-rule="evenodd" clip-rule="evenodd" d="M26.136 3.46944C24.4672 0.295705 20.5413 -0.921769 17.3706 0.749491L3.46734 8.13734C0.296568 9.8086 -0.920854 13.735 0.747972 16.9087C1.86964 19.042 4.01176 20.2899 6.25783 20.373L3.65063 21.7592C0.479866 23.4305 -0.737557 27.3568 0.931269 30.5306C2.6001 33.7043 6.52594 34.9218 9.69671 33.2505L23.5999 25.8627C26.7734 24.1914 27.9881 20.265 26.3193 17.0913C25.1976 14.958 23.0555 13.7101 20.8094 13.627L23.4166 12.2408C26.5874 10.5695 27.8048 6.64317 26.136 3.46944ZM9.86633 11.7677L9.86621 11.7676V22.2517L9.86633 22.2517L18.2815 17.0221L9.86633 11.7677Z" fill="white"/>
</svg>
