<svg width="20" height="20" viewBox="0 0 20 20" fill="none" xmlns="http://www.w3.org/2000/svg">
<path d="M4.66657 11.9327C4.17126 11.4266 3.79761 10.8145 3.57392 10.1426C3.35023 9.47078 3.28237 8.75684 3.37547 8.05488C3.46858 7.35291 3.7202 6.68134 4.1113 6.09103C4.50239 5.50072 5.02269 5.00715 5.63279 4.64771C6.24289 4.28827 6.92678 4.07238 7.63268 4.01639C8.33857 3.96041 9.04795 4.0658 9.70708 4.32458C10.3662 4.58336 10.9578 4.98875 11.4371 5.51003C11.9163 6.03132 12.2706 6.65483 12.4732 7.33334H13.6666C14.3102 7.33327 14.9369 7.54022 15.4539 7.92364C15.9709 8.30705 16.3509 8.84658 16.5377 9.46255C16.7246 10.0785 16.7084 10.7382 16.4915 11.3443C16.2746 11.9503 15.8685 12.4705 15.3332 12.828M10 10V16M10 16L7.33333 13.3333M10 16L12.6667 13.3333" stroke="white" stroke-width="1.5" stroke-linecap="round" stroke-linejoin="round"/>
</svg>
