<svg width="24" height="24" viewBox="0 0 24 24" fill="none" xmlns="http://www.w3.org/2000/svg">
<path d="M17.8332 10.3333V12C17.8332 13.5471 17.2186 15.0308 16.1246 16.1248C15.0307 17.2187 13.5469 17.8333 11.9998 17.8333M11.9998 17.8333C10.4527 17.8333 8.96901 17.2187 7.87505 16.1248C6.78109 15.0308 6.1665 13.5471 6.1665 12V10.3333M11.9998 17.8333V20.3333M11.9998 3.66666C11.3368 3.66666 10.7009 3.93005 10.2321 4.39889C9.76323 4.86773 9.49984 5.50362 9.49984 6.16666V12C9.49984 12.663 9.76323 13.2989 10.2321 13.7678C10.7009 14.2366 11.3368 14.5 11.9998 14.5C12.6629 14.5 13.2988 14.2366 13.7676 13.7678C14.2364 13.2989 14.4998 12.663 14.4998 12V6.16666C14.4998 5.50362 14.2364 4.86773 13.7676 4.39889C13.2988 3.93005 12.6629 3.66666 11.9998 3.66666Z" stroke="#6B7280" stroke-width="2" stroke-linecap="round" stroke-linejoin="round"/>
</svg>
