<svg width="16" height="16" viewBox="0 0 16 16" fill="none" xmlns="http://www.w3.org/2000/svg">
<path d="M6.6665 1.33333H9.33317M7.99984 9.33333V6.66666M2.6665 8.66666C2.82975 7.37064 3.46294 6.1796 4.446 5.31942C5.42906 4.45925 6.69362 3.98976 7.99984 4C8.86254 4.00091 9.71213 4.21109 10.4758 4.6125C11.2394 5.01391 11.8942 5.59458 12.3841 6.30468C12.874 7.01478 13.1844 7.83313 13.2885 8.68952C13.3926 9.5459 13.2875 10.4148 12.982 11.2216C12.6766 12.0284 12.18 12.7491 11.5348 13.3218C10.8897 13.8945 10.1152 14.3022 9.27788 14.5099C8.44054 14.7175 7.56533 14.7189 6.72733 14.514C5.88932 14.3091 5.11353 13.904 4.4665 13.3333L2.6665 11.7333M5.99984 11.3333H2.6665V14.6667" stroke="white" stroke-width="1.5" stroke-linecap="round" stroke-linejoin="round"/>
</svg>
